<mxfile host="65bd71144e">
    <diagram id="Sg2Q6090-Zyv2usshcZ3" name="Page-1">
        <mxGraphModel dx="601" dy="949" grid="1" gridSize="10" guides="1" tooltips="1" connect="1" arrows="1" fold="1" page="1" pageScale="1" pageWidth="850" pageHeight="1100" math="0" shadow="0">
            <root>
                <mxCell id="0"/>
                <mxCell id="1" parent="0"/>
                <mxCell id="10" style="edgeStyle=none;html=1;fontSize=20;" edge="1" parent="1" source="2" target="5">
                    <mxGeometry relative="1" as="geometry"/>
                </mxCell>
                <mxCell id="12" style="edgeStyle=none;html=1;fontSize=20;" edge="1" parent="1" source="2" target="4">
                    <mxGeometry relative="1" as="geometry"/>
                </mxCell>
                <mxCell id="2" value="&lt;font style=&quot;font-size: 20px&quot;&gt;let&lt;/font&gt;" style="ellipse;whiteSpace=wrap;html=1;" vertex="1" parent="1">
                    <mxGeometry x="160" y="120" width="80" height="80" as="geometry"/>
                </mxCell>
                <mxCell id="3" value="&lt;font style=&quot;font-size: 20px&quot;&gt;AST&lt;br&gt;&lt;/font&gt;" style="text;html=1;align=center;verticalAlign=middle;resizable=0;points=[];autosize=1;strokeColor=none;fillColor=none;" vertex="1" parent="1">
                    <mxGeometry x="175" y="90" width="50" height="20" as="geometry"/>
                </mxCell>
                <mxCell id="4" value="&lt;font style=&quot;font-size: 20px&quot;&gt;x&lt;/font&gt;" style="ellipse;whiteSpace=wrap;html=1;dashed=1;" vertex="1" parent="1">
                    <mxGeometry x="80" y="240" width="80" height="80" as="geometry"/>
                </mxCell>
                <mxCell id="17" style="edgeStyle=none;html=1;fontSize=20;" edge="1" parent="1" source="5" target="16">
                    <mxGeometry relative="1" as="geometry"/>
                </mxCell>
                <mxCell id="5" value="&lt;font style=&quot;font-size: 20px&quot;&gt;rec&lt;/font&gt;" style="ellipse;whiteSpace=wrap;html=1;fixDash=0;snapToPoint=0;container=0;dropTarget=0;collapsible=0;noLabel=0;treeFolding=0;treeMoving=0;comic=0;perimeter=ellipsePerimeter;portConstraint=none;" vertex="1" parent="1">
                    <mxGeometry x="240" y="240" width="80" height="80" as="geometry"/>
                </mxCell>
                <mxCell id="13" value="&lt;font style=&quot;font-size: 20px&quot;&gt;a%&lt;br&gt;&lt;/font&gt;" style="text;html=1;align=center;verticalAlign=middle;resizable=0;points=[];autosize=1;strokeColor=none;fillColor=none;" vertex="1" parent="1">
                    <mxGeometry x="120" y="200" width="40" height="20" as="geometry"/>
                </mxCell>
                <mxCell id="14" value="&lt;font style=&quot;font-size: 20px&quot;&gt;b%(b&amp;gt;a)&lt;br&gt;&lt;/font&gt;" style="text;html=1;align=center;verticalAlign=middle;resizable=0;points=[];autosize=1;strokeColor=none;fillColor=none;" vertex="1" parent="1">
                    <mxGeometry x="240" y="200" width="90" height="20" as="geometry"/>
                </mxCell>
                <mxCell id="21" style="edgeStyle=none;html=1;entryX=0.5;entryY=0;entryDx=0;entryDy=0;fontSize=20;" edge="1" parent="1" source="16" target="20">
                    <mxGeometry relative="1" as="geometry"/>
                </mxCell>
                <mxCell id="16" value="&lt;font style=&quot;font-size: 20px&quot;&gt;=&lt;/font&gt;" style="ellipse;whiteSpace=wrap;html=1;fixDash=0;snapToPoint=0;container=0;dropTarget=0;collapsible=0;noLabel=0;treeFolding=0;treeMoving=0;comic=0;perimeter=ellipsePerimeter;portConstraint=none;" vertex="1" parent="1">
                    <mxGeometry x="240" y="360" width="80" height="80" as="geometry"/>
                </mxCell>
                <mxCell id="18" value="&lt;font style=&quot;font-size: 20px&quot;&gt;100%&lt;br&gt;&lt;/font&gt;" style="text;html=1;align=center;verticalAlign=middle;resizable=0;points=[];autosize=1;strokeColor=none;fillColor=none;" vertex="1" parent="1">
                    <mxGeometry x="210" y="330" width="70" height="20" as="geometry"/>
                </mxCell>
                <mxCell id="34" style="edgeStyle=none;html=1;fontSize=16;" edge="1" parent="1" source="20">
                    <mxGeometry relative="1" as="geometry">
                        <mxPoint x="360" y="520" as="targetPoint"/>
                    </mxGeometry>
                </mxCell>
                <mxCell id="20" value="&lt;font style=&quot;font-size: 20px&quot;&gt;exp&lt;/font&gt;" style="ellipse;whiteSpace=wrap;html=1;fixDash=0;snapToPoint=0;container=0;dropTarget=0;collapsible=0;noLabel=0;treeFolding=0;treeMoving=0;comic=0;perimeter=ellipsePerimeter;portConstraint=none;" vertex="1" parent="1">
                    <mxGeometry x="240" y="480" width="80" height="80" as="geometry"/>
                </mxCell>
                <mxCell id="22" value="&lt;font style=&quot;font-size: 20px&quot;&gt;100%&lt;br&gt;&lt;/font&gt;" style="text;html=1;align=center;verticalAlign=middle;resizable=0;points=[];autosize=1;strokeColor=none;fillColor=none;" vertex="1" parent="1">
                    <mxGeometry x="210" y="450" width="70" height="20" as="geometry"/>
                </mxCell>
                <mxCell id="25" value="&lt;font style=&quot;font-size: 16px&quot;&gt;candidate&lt;/font&gt;&lt;font style=&quot;font-size: 13.3333px&quot;&gt;&lt;sub&gt;1&lt;/sub&gt;&lt;/font&gt;" style="ellipse;whiteSpace=wrap;html=1;" vertex="1" parent="1">
                    <mxGeometry x="400" y="480" width="80" height="80" as="geometry"/>
                </mxCell>
                <mxCell id="27" value="" style="shape=waypoint;sketch=0;size=6;pointerEvents=1;points=[];fillColor=none;resizable=0;rotatable=0;perimeter=centerPerimeter;snapToPoint=1;dashed=1;comic=0;fontSize=20;" vertex="1" parent="1">
                    <mxGeometry x="480" y="500" width="40" height="40" as="geometry"/>
                </mxCell>
                <mxCell id="28" value="" style="shape=waypoint;sketch=0;size=6;pointerEvents=1;points=[];fillColor=none;resizable=0;rotatable=0;perimeter=centerPerimeter;snapToPoint=1;dashed=1;comic=0;fontSize=20;" vertex="1" parent="1">
                    <mxGeometry x="520" y="500" width="40" height="40" as="geometry"/>
                </mxCell>
                <mxCell id="29" value="" style="shape=waypoint;sketch=0;size=6;pointerEvents=1;points=[];fillColor=none;resizable=0;rotatable=0;perimeter=centerPerimeter;snapToPoint=1;dashed=1;comic=0;fontSize=20;" vertex="1" parent="1">
                    <mxGeometry x="560" y="500" width="40" height="40" as="geometry"/>
                </mxCell>
                <mxCell id="31" value="" style="shape=curlyBracket;whiteSpace=wrap;html=1;rounded=1;comic=0;fontSize=20;" vertex="1" parent="1">
                    <mxGeometry x="380" y="460" width="20" height="120" as="geometry"/>
                </mxCell>
                <mxCell id="32" value="" style="shape=curlyBracket;whiteSpace=wrap;html=1;rounded=1;flipH=1;comic=0;fontSize=20;" vertex="1" parent="1">
                    <mxGeometry x="680" y="460" width="20" height="120" as="geometry"/>
                </mxCell>
                <mxCell id="33" value="&lt;font style=&quot;font-size: 16px&quot;&gt;candidate&lt;/font&gt;&lt;font style=&quot;font-size: 11.1111px&quot;&gt;&lt;sub&gt;n&lt;/sub&gt;&lt;/font&gt;" style="ellipse;whiteSpace=wrap;html=1;" vertex="1" parent="1">
                    <mxGeometry x="600" y="480" width="80" height="80" as="geometry"/>
                </mxCell>
                <mxCell id="35" value="&lt;font style=&quot;font-size: 20px&quot;&gt;choose one&lt;/font&gt;" style="text;html=1;align=center;verticalAlign=middle;resizable=0;points=[];autosize=1;strokeColor=none;fillColor=none;fontSize=16;" vertex="1" parent="1">
                    <mxGeometry x="480" y="430" width="120" height="30" as="geometry"/>
                </mxCell>
            </root>
        </mxGraphModel>
    </diagram>
</mxfile>